<svg xmlns="http://www.w3.org/2000/svg" width="200" height="200" viewBox="0 0 200 200"><defs><style>.a{fill:#e8f4fa;}.b{fill:#59afdb;opacity:0.15;}.c,.g{fill:#fff;}.c,.f,.g{stroke:#45413c;stroke-linejoin:round;}.c,.f{stroke-linecap:round;}.d{fill:#00b8f0;}.e{fill:#4acfff;}.f{fill:none;}</style></defs><g transform="translate(-198.974 -709.638)"><circle class="a" cx="100" cy="100" r="100" transform="translate(198.974 709.638)"/><path class="b" d="M350.5,884.972c0,2.5-17.147,4.528-38.3,4.528s-38.3-2.028-38.3-4.528,17.148-4.528,38.3-4.528S350.5,882.471,350.5,884.972Z"/><path class="c" d="M323.443,869.421a7.6,7.6,0,0,1-10.321,3.009l-33.281-18.254a7.6,7.6,0,0,1-3.008-10.322l41.134-74.984a7.6,7.6,0,0,1,10.321-3.008l33.281,18.254a7.6,7.6,0,0,1,3.009,10.321Z"/><rect class="d" width="70.322" height="53.162" transform="translate(280.49 837.191) rotate(-61.255)"/><path class="e" d="M284.211,830.4l74.878-30.3-44.78-24.56Z"/><rect class="f" width="70.322" height="53.162" transform="translate(280.49 837.191) rotate(-61.255)"/><line class="f" x2="1.666" y2="0.914" transform="translate(347.96 785.322)"/><line class="f" x2="10.722" y2="6.038" transform="translate(332.31 776.816)"/><path class="g" d="M231.182,747.326a5.225,5.225,0,0,1,5.225-5.225h57.472a5.225,5.225,0,0,1,5.225,5.225v40.491a5.225,5.225,0,0,1-5.225,5.225H275.593v5.774a3.019,3.019,0,0,1-5.154,2.135l-7.908-7.909H236.407a5.225,5.225,0,0,1-5.225-5.225Z"/><line class="f" x2="8.046" transform="translate(274.455 760.213)"/><line class="f" x2="24.948" transform="translate(243.257 760.213)"/><line class="f" x2="21.796" transform="translate(260.705 769.27)"/><line class="f" x2="11.198" transform="translate(243.257 769.27)"/><line class="f" x2="24.948" transform="translate(243.257 778.326)"/><path class="g" d="M303.16,856.651a3,3,0,1,1-3-3A3,3,0,0,1,303.16,856.651Z"/></g></svg>